<?xml version="1.0" encoding="UTF-8"?>
<svg width="200" height="200" viewBox="0 0 200 200" version="1.1" xmlns="http://www.w3.org/2000/svg">
    <!-- Фон -->
    <circle cx="100" cy="100" r="90" fill="#2A2A2A"/>
    
    <!-- Внешнее кольцо -->
    <circle cx="100" cy="100" r="85" fill="none" stroke="#4A4A4A" stroke-width="2"/>
    
    <!-- Щит -->
    <path d="M100 30
             L140 50
             L140 110
             L100 170
             L60 110
             L60 50
             Z" 
          fill="#3A3A3A" 
          stroke="#666666" 
          stroke-width="2"/>
    
    <!-- Мечи -->
    <g transform="translate(100,100) rotate(45)">
        <!-- Меч 1 -->
        <rect x="-40" y="-5" width="80" height="10" fill="#666666"/>
        <polygon points="-60,-5 -40,-5 -40,5 -60,5" fill="#888888"/>
        <polygon points="40,-5 60,-5 60,5 40,5" fill="#888888"/>
    </g>
    <g transform="translate(100,100) rotate(-45)">
        <!-- Меч 2 -->
        <rect x="-40" y="-5" width="80" height="10" fill="#666666"/>
        <polygon points="-60,-5 -40,-5 -40,5 -60,5" fill="#888888"/>
        <polygon points="40,-5 60,-5 60,5 40,5" fill="#888888"/>
    </g>
    
    <!-- Звезда в центре -->
    <circle cx="100" cy="100" r="15" fill="#888888"/>
    <path d="M100 85 L105 95 L115 95 L107 102 L110 112 L100 106 L90 112 L93 102 L85 95 L95 95 Z" 
          fill="#2A2A2A"/>
</svg> 